<svg xmlns="http://www.w3.org/2000/svg" width="500" height="125.32" viewBox="0 0 500 125.32"><title>matrixcare-logo</title><path d="M221.34,78h15.23V27.5H221.34ZM229,2.34a8,8,0,1,0,8,8h0A8,8,0,0,0,229,2.34ZM70,6.12,53.39,38.22c-2.2,4.27-5.34,10.86-7.3,15.72h-.31c-2-4.86-5.1-11.45-7.3-15.72L21.83,6.12H8.7L2.5,78H17.84L20.38,48.5c.35-4.16.7-8.67.7-13.53h.22a150.89,150.89,0,0,0,6.25,13.88l15.2,29.4h6.37l15.2-29.4c2.19-4.28,4.39-9.13,6.25-13.88h.22c0,4.86.35,9.37.7,13.53L74,78H89.37L83.17,6.12ZM199.24,35.2a16,16,0,0,0-1.66,3.52V27.5h-14.2V78h15V58.26c0-6.1,1.93-11.07,5.6-14.39a18.75,18.75,0,0,1,12.69-4.48h.45V26.6C211.19,26.7,203.36,28.4,199.24,35.2ZM137,61h0V46c0-12.78-8.3-20.11-22.77-20.11a43.14,43.14,0,0,0-15.49,2.79V40.11a36.13,36.13,0,0,1,14.57-3c8,0,9.14,4,9.14,6.37v2.7l-11.25,1.13c-10.3,1-17,7.35-17,16.06,0,9.75,7.24,16.29,18,16.29a18.8,18.8,0,0,0,14-5.59l.84-.92.65,1.06c1.93,3.14,5.2,5,9.74,5.41l5.08-10.16C139,68.39,137,65.39,137,61Zm-14.08-.12c0,5.12-4.88,8.69-9.26,8.69a6.21,6.21,0,0,1-6.49-5.91v-.12c0-3.39,2-7.22,7.67-7.75l8.08-.8Zm40.4-49.3L148.92,17V27.5h-9.25v12h8.9v22.3c0,10.08,7.61,17.11,18.51,17.11a22.57,22.57,0,0,0,8.33-1.41V66a20.84,20.84,0,0,1-4.52.47c-4.49,0-7.39-2.76-7.39-7V39.53h14.37v-12h-14.6ZM293.73,27.5h-17L267.2,42.12,257.62,27.5h-17l16.55,25.25L240.67,78h17l9.58-14.62L276.78,78h17L277.18,52.75Z" transform="translate(-2.5 -2.34)" fill="#005b9e"/><path d="M499.8,30h0A1.73,1.73,0,0,0,498,28.36h-1.73v5.52h1.06V31.72H498l1.44,2.18.88-.59L499,31.43A1.58,1.58,0,0,0,499.8,30Zm-2,.76h-.51V29.28h.51c.57,0,.91.29.91.76S498.41,30.79,497.84,30.79Zm.21-4.16a4.49,4.49,0,0,0-.08,9h.26a4.38,4.38,0,0,0,4.27-4.49A4.49,4.49,0,0,0,498.05,26.63Zm-.22,8.07a3.58,3.58,0,0,1,.14-7.16h.21a3.44,3.44,0,0,1,3.3,3.58v.07A3.58,3.58,0,0,1,497.83,34.7ZM294.26,42.06c0,24.48,20.25,37.69,39.3,37.69,8.65,0,15.1-1.4,19.71-4.29V62.39C348.88,64.74,343,66,336.23,66c-14.87,0-25.65-10.06-25.65-23.92s10.54-24,25.07-24a34.82,34.82,0,0,1,17.62,4.49V8.35c-4.82-2.53-12-4-19.7-4C314.52,4.38,294.26,17.58,294.26,42.06ZM400.35,61h0V46c0-12.78-8.29-20.11-22.76-20.11a43.16,43.16,0,0,0-15.5,2.79V40.11a36.2,36.2,0,0,1,14.57-3c7.95,0,9.15,4,9.15,6.37v2.7l-11.25,1.13c-10.31,1-17,7.35-17,16.06,0,9.75,7.25,16.29,18,16.29a18.8,18.8,0,0,0,14-5.59l.84-.92.66,1.06c1.93,3.14,5.2,5,9.74,5.41l5.08-10.16C402.36,68.39,400.35,65.39,400.35,61Zm-14.08-.12c0,5.12-4.88,8.69-9.26,8.69a6.22,6.22,0,0,1-6.49-5.91v-.12c0-3.39,2-7.22,7.67-7.75l8.08-.8Zm82.58-35c-15.28,0-26.36,11.19-26.36,26.59,0,16,12.22,27.17,29.71,27.17a35.61,35.61,0,0,0,16.19-3.33V65.14a29,29,0,0,1-14.23,3.4c-9.84,0-14.91-5.72-16.25-10.61a8.63,8.63,0,0,1-.27-1.2h34.19A41,41,0,0,0,491.35,42C489.44,34.21,482.31,25.89,468.85,25.89Zm8.93,21.85H457.17a6.74,6.74,0,0,1,.15-1.11,11.9,11.9,0,0,1,11.49-9.74,8.9,8.9,0,0,1,9.09,8.7v.07A10.34,10.34,0,0,1,477.78,47.74Zm-34.17-8.35V26.6c-5.93.1-13.77,1.8-17.88,8.6a16,16,0,0,0-1.66,3.52V27.5h-14.2V78h15V58.26c0-6.1,1.93-11.07,5.6-14.39a18.74,18.74,0,0,1,12.68-4.48Z" transform="translate(-2.5 -2.34)" fill="#f26522"/><path d="M340.81,110.89a5,5,0,0,0-2.27.57,3.76,3.76,0,0,0-1.36,1.27l1.65-7.19H337l-3.84,16.67H335l.47-2c.26.87.71,2.26,3.42,2.26,5.33,0,6.06-5.49,6.06-6.91C344.93,113,343.49,110.89,340.81,110.89Zm.55,9.1a3.74,3.74,0,0,1-2.55,1c-1,0-2.66-.52-2.66-3a9.06,9.06,0,0,1,.85-3.54,3.71,3.71,0,0,1,3.29-2.12h0c1.37,0,2.8.81,2.76,3.16A6.8,6.8,0,0,1,341.36,120Zm8.72,0-.87-8.86h-1.82L348.61,122l-1.46,2.5a4.28,4.28,0,0,1-1,1.21,2,2,0,0,1-1.15.3,4.15,4.15,0,0,1-.87-.07l-.38,1.61a6.73,6.73,0,0,0,1.27.09c2.1,0,2.57-.76,3.61-2.39L357,111.11h-2Zm36.76-14.23a6.25,6.25,0,0,0-2.57-5.45A7.34,7.34,0,0,0,380.59,99c-.49,0-.95,0-1.44,0H368.92l-5.26,23.2h5.76l1.9-8.32h4.05l3.05,8.32h6.31L381,113a11.34,11.34,0,0,0,3.35-1.54,6.52,6.52,0,0,0,1.55-1.84h0A8.08,8.08,0,0,0,386.84,105.74Zm-6.25,2.07a3.09,3.09,0,0,1-2.17,1.64,8.69,8.69,0,0,1-1.25.14h-4.86l1.45-6.35h3.91c1.64,0,2.33.27,2.92,1h0a2.59,2.59,0,0,1,.5,1.61A4,4,0,0,1,380.59,107.81ZM415.73,112a21.33,21.33,0,0,0-2.1-.66c-1.48-.43-2.66-.72-2.66-1.64,0-.73.75-1.32,2.17-1.32a4.86,4.86,0,0,1,3.18,1.09,5.66,5.66,0,0,1,.95,1.18l3.85-1.87a8.93,8.93,0,0,0-.95-1.41c-1.12-1.28-3.06-2.73-7-2.73s-5.85,1.48-6.77,2.93a4.22,4.22,0,0,0-.1,4.67c1,1.63,2.46,2.13,5.82,3.18,1.18.36,1.9.55,2.3,1.12a1.13,1.13,0,0,1,.2.59,1.23,1.23,0,0,1-.2.62,1.69,1.69,0,0,1-.92.63,6.1,6.1,0,0,1-1.64.26,4.74,4.74,0,0,1-3.75-1.54,6.38,6.38,0,0,1-.63-1l-4.24,2.1a7.46,7.46,0,0,0,1.06,1.55,9.22,9.22,0,0,0,7.19,3,9.49,9.49,0,0,0,6.64-2.2,5.44,5.44,0,0,0,1.78-3.81,4.54,4.54,0,0,0-.23-1.51C419.12,113.46,417.44,112.64,415.73,112Zm26.39-13-7.2,15.22L434.53,99H426l-5.2,23.21h5.42l4-18.21.66,18.21h4.86l8.67-17.95-4.14,17.95h5.39L450.83,99ZM483,99l-1.81,8a5.09,5.09,0,0,0-1.09-1.18,6.27,6.27,0,0,0-3.68-1.12,8.34,8.34,0,0,0-7.09,4.17,12.9,12.9,0,0,0-1.91,6.65,7,7,0,0,0,2.4,5.85,5.39,5.39,0,0,0,3.65,1.27,6.77,6.77,0,0,0,3.75-1.08L478,121l-.23,1.18h5.06L488.08,99Zm-4.37,17.89a3.88,3.88,0,0,1-3.31,1.93,2.39,2.39,0,0,1-2.24-1.11,4.05,4.05,0,0,1-.56-2.28c0-2.13.82-4.86,2.69-6.11a3.35,3.35,0,0,1,1.78-.62,2.73,2.73,0,0,1,2.79,1.94h0a4,4,0,0,1,.2,1.42A9.69,9.69,0,0,1,478.62,116.89Zm-80.84.58a4.43,4.43,0,0,1-3.18,1.32,3.72,3.72,0,0,1-1.91-.46c-1.81-1-1.54-3.22-1.51-3.68H403.5c.07-.72.14-1.48.14-2.24a9.78,9.78,0,0,0-.33-2.63,6.86,6.86,0,0,0-1.25-2.43,7.91,7.91,0,0,0-6.21-2.66,9.77,9.77,0,0,0-5.06,1.35,10.32,10.32,0,0,0-4.31,6.21,9.33,9.33,0,0,0-.26,2.3,7.74,7.74,0,0,0,4.6,7.49,9.86,9.86,0,0,0,3.64.66,8.6,8.6,0,0,0,7.27-3.26c.29-.38.57-.79.83-1.21l-3.94-2A7.17,7.17,0,0,1,397.78,117.47Zm-4.4-8.28a3.68,3.68,0,0,1,2.5-1,3.15,3.15,0,0,1,3.06,1.94,5,5,0,0,1,.16,1.28h-7.26A5.7,5.7,0,0,1,393.38,109.19Zm9.18,9h0Zm62.26-10.88a7.91,7.91,0,0,0-6.21-2.66,9.83,9.83,0,0,0-5.07,1.35,10.35,10.35,0,0,0-4.3,6.21,8.88,8.88,0,0,0-.27,2.3,7.76,7.76,0,0,0,4.61,7.49,9.86,9.86,0,0,0,3.64.66,8.61,8.61,0,0,0,7.27-3.26c.29-.38.56-.79.83-1.21l-3.95-2a6.58,6.58,0,0,1-.83,1.2,4.47,4.47,0,0,1-3.18,1.32,3.71,3.71,0,0,1-1.9-.46c-1.81-1-1.55-3.22-1.52-3.68h12.32c.07-.72.13-1.48.13-2.24a9.38,9.38,0,0,0-.32-2.63A6.86,6.86,0,0,0,464.82,107.35Zm-10.22,4.11a5.7,5.7,0,0,1,1.54-2.27h0a3.66,3.66,0,0,1,2.5-1,3.16,3.16,0,0,1,3.06,1.94,5,5,0,0,1,.16,1.28Zm10.72,6.77h0Z" transform="translate(-2.5 -2.34)" fill="#424243"/></svg>